HIERARCHY
ROOT Hips
{
	OFFSET 0.000000 0.000000 0.000000 
	CHANNELS 6 Xposition Yposition Zposition Zrotation Yrotation Xrotation
	JOINT LeftUpLeg
	{
		OFFSET 1.363060 -1.794630 0.839290 
		CHANNELS 3 Zrotation Yrotation Xrotation
		JOINT LeftLeg
		{
			OFFSET 2.448110 -6.726130 0.000000 
			CHANNELS 3 Zrotation Yrotation Xrotation
			JOINT LeftFoot
			{
				OFFSET 2.562200 -7.039590 0.000000 
				CHANNELS 3 Zrotation Yrotation Xrotation
				JOINT LeftToeBase
				{
					OFFSET 0.157640 -0.433110 2.322550 
					CHANNELS 3 Zrotation Yrotation Xrotation
					End Site
					{
						OFFSET 0.000000 0.000000 0.000000 
					}
				}
			}
		}
	}
	JOINT RightUpLeg
	{
		OFFSET -1.305520 -1.794630 0.839290 
		CHANNELS 3 Zrotation Yrotation Xrotation
		JOINT RightLeg
		{
			OFFSET -2.542530 -6.985550 0.000000 
			CHANNELS 3 Zrotation Yrotation Xrotation
			JOINT RightFoot
			{
				OFFSET -2.568260 -7.056230 0.000000 
				CHANNELS 3 Zrotation Yrotation Xrotation
				JOINT RightToeBase
				{
					OFFSET -0.164730 -0.452590 2.363150 
					CHANNELS 3 Zrotation Yrotation Xrotation
					End Site
					{
						OFFSET 0.000000 0.000000 0.000000 
					}
				}
			}
		}
	}
	JOINT Spine
	{
		OFFSET 0.028270 2.035590 -0.193380 
		CHANNELS 3 Zrotation Yrotation Xrotation
		JOINT Spine1
		{
			OFFSET 0.056720 2.048850 -0.042750 
			CHANNELS 3 Zrotation Yrotation Xrotation
			JOINT Neck1
			{
				OFFSET -0.054170 1.746240 0.172020 
				CHANNELS 3 Zrotation Yrotation Xrotation
				JOINT Head
				{
					OFFSET 0.104070 1.761360 -0.123970 
					CHANNELS 3 Zrotation Yrotation Xrotation
					End Site
					{
						OFFSET 0.000000 0.000000 0.000000 
					}
				}
			}
			JOINT LeftArm
			{
				OFFSET 3.362410 1.200890 -0.311210 
				CHANNELS 3 Zrotation Yrotation Xrotation
				JOINT LeftForeArm
				{
					OFFSET 4.983000 -0.000000 -0.000000 
					CHANNELS 3 Zrotation Yrotation Xrotation
					JOINT LeftHand
					{
						OFFSET 3.483560 -0.000000 -0.000000 
						CHANNELS 3 Zrotation Yrotation Xrotation
						JOINT LeftHandIndex1
						{
							OFFSET 0.715260 -0.000000 -0.000000 
							CHANNELS 3 Zrotation Yrotation Xrotation
							End Site
							{
								OFFSET 0.000000 0.000000 0.000000 
							}
						}
					}
				}
			}
			JOINT RightArm
			{
				OFFSET -3.136600 1.374050 -0.404650 
				CHANNELS 3 Zrotation Yrotation Xrotation
				JOINT RightForeArm
				{
					OFFSET -5.241900 -0.000000 -0.000000 
					CHANNELS 3 Zrotation Yrotation Xrotation
					JOINT RightHand
					{
						OFFSET -3.444170 -0.000000 -0.000000 
						CHANNELS 3 Zrotation Yrotation Xrotation
						JOINT RightHandIndex1
						{
							OFFSET -0.622530 -0.000000 -0.000000 
							CHANNELS 3 Zrotation Yrotation Xrotation
							End Site
							{
								OFFSET 0.000000 0.000000 0.000000 
							}
						}
					}
				}
			}
		}
	}
}
MOTION
Frames: 6
Frame Time: 0.041667
2.077620 17.606923 24.245188 -2.223044 5.002179 17.016232 -11.221419 -4.098389 -33.578439 13.311279 19.912058 71.499102 0.660180 -10.701527 15.673022 0.419400 -4.156900 -11.518600 21.277559 6.253954 -32.446003 -0.885543 -10.790613 28.727174 -0.796960 4.988596 -3.752686 -0.034600 1.200100 -3.299400 2.876949 -3.094551 -8.610276 3.016607 -0.933149 1.965390 12.031937 -14.533112 10.817449 4.394100 -7.119000 3.303000 -103.504755 1.652605 22.099805 8.056102 -21.901153 -1.374695 -0.653782 -0.748786 15.073998 -7.125000 0.000000 0.000000 94.705129 -1.996638 15.011484 -12.000637 28.042879 -2.735913 -0.911006 -1.622048 0.659443 7.125000 0.000000 0.000000 
2.079121 17.613140 24.339947 -2.361394 4.032147 16.962546 -10.881190 -3.895992 -34.711525 13.591121 20.020464 72.240578 0.628511 -10.157461 15.081072 0.310500 -3.582400 -9.904700 21.393146 6.955869 -31.751387 -0.858245 -10.721900 28.570077 -0.812290 5.087182 -3.979414 -0.045800 1.381400 -3.798800 2.887675 -2.840851 -8.516503 3.228343 -0.795589 2.074518 12.007326 -14.462514 10.707662 4.379800 -7.088600 3.202700 -103.306995 2.063975 21.713341 8.017977 -21.843785 -1.363498 -0.662824 -0.745374 14.953836 -7.125000 0.000000 0.000000 94.574495 -0.956474 16.434966 -12.475036 28.727852 -2.910030 -0.901360 -1.628802 -0.238802 7.125000 0.000000 0.000000 
2.087053 17.621823 24.432990 -2.146974 3.033207 16.956932 -10.920534 -3.915742 -35.822794 13.771823 20.106160 72.716079 0.595530 -9.495582 14.541477 0.222300 -3.034800 -8.375600 21.114203 7.414399 -31.152827 -0.850194 -10.666518 28.466027 -0.853861 5.430399 -4.077906 -0.055000 1.513500 -4.162900 2.861139 -2.662507 -8.429839 3.477794 -0.700406 2.178577 12.087914 -14.305838 10.518794 4.452400 -7.025500 3.066100 -103.185899 2.482427 20.860086 7.960239 -21.766634 -1.359238 -0.675437 -0.724870 15.597077 -7.125000 0.000000 0.000000 94.456525 -0.042169 17.912988 -13.177311 29.719166 -3.184867 -0.864324 -1.641384 -1.105573 7.125000 0.000000 0.000000 
2.115995 17.635436 24.540398 -1.826365 2.243948 17.107677 -11.140807 -4.275320 -36.706289 13.825628 20.150666 72.849749 0.563736 -8.991512 13.950163 0.128500 -2.310300 -6.364000 20.805865 6.997871 -30.944034 -0.858365 -10.616802 28.381211 -0.962902 6.454701 -4.007460 -0.060700 1.590200 -4.374300 2.780797 -2.529656 -8.414161 3.432888 -0.645307 2.262320 12.063781 -14.265785 10.654109 4.453300 -7.001900 3.139300 -102.920038 3.027550 20.573735 7.940516 -21.725407 -1.371922 -0.674145 -0.695963 15.930714 -7.125000 0.000000 0.000000 94.329446 0.607202 19.336163 -14.035005 30.891232 -3.532215 -0.801269 -1.672629 -1.989326 7.125000 0.000000 0.000000 
2.147296 17.652266 24.645233 -1.564341 1.360796 17.201249 -11.282179 -4.592715 -37.404797 13.777031 20.162512 72.693690 0.520554 -8.827608 12.247770 0.278000 -3.391000 -9.369200 20.578715 6.459446 -30.790996 -0.870298 -10.565973 28.292427 -1.091679 7.717926 -3.987053 -0.074600 1.762400 -4.849600 2.706364 -2.394115 -8.415579 3.354533 -0.590068 2.254305 11.846138 -14.282150 10.870362 4.362700 -7.007100 3.220100 -102.625540 3.809964 20.398193 8.033615 -21.855100 -1.391343 -0.680754 -0.701258 16.267926 -7.125000 0.000000 0.000000 94.182055 1.148980 20.877538 -14.894871 32.022176 -3.888984 -0.745364 -1.692342 -2.970771 7.125000 0.000000 0.000000 
2.168520 17.673597 24.737098 -1.480872 0.423249 17.231716 -11.087751 -4.881762 -38.160885 13.649552 20.155597 72.297600 0.510061 -8.682225 11.605124 0.219000 -3.012600 -8.313700 20.483370 6.366925 -30.476645 -0.860330 -10.490736 28.125537 -1.176058 8.621514 -3.976394 -0.085300 1.884000 -5.185300 2.682506 -2.313284 -8.379763 3.355177 -0.565164 2.291023 11.436141 -14.287740 11.185558 4.095800 -6.976900 3.393600 -102.322805 4.519171 20.172977 8.199497 -22.109111 -1.431303 -0.676628 -0.715176 16.718319 -7.125000 0.000000 0.000000 94.153627 1.926638 22.577112 -15.845457 33.227789 -4.290720 -0.694927 -1.715930 -4.231669 7.125000 0.000000 0.000000 
